<svg width="183" height="60" viewBox="0 0 183 60" fill="none" xmlns="http://www.w3.org/2000/svg">
<g filter="url(#filter0_d_1221_1444)">
<path d="M26.8703 8.04004L43.8577 17.855V37.4849L26.8703 47.2999L9.88281 37.4849V17.855L26.8703 8.04004Z" stroke="white" stroke-width="0.754998"/>
<path opacity="0.5" d="M26.8709 14.0811L38.5734 20.876V34.466L26.8709 41.261L15.1685 34.466V20.876L26.8709 14.0811Z" stroke="white" stroke-width="0.377499"/>
<path d="M26.8705 20.875L32.9105 27.67L26.8705 34.465L20.8306 27.67L26.8705 20.875Z" fill="white"/>
<path opacity="0.6" d="M15.1685 20.875L20.8309 27.67" stroke="white" stroke-width="0.377499"/>
<path opacity="0.6" d="M38.5721 20.875L32.9097 27.67" stroke="white" stroke-width="0.377499"/>
<path opacity="0.6" d="M26.8706 14.0811V20.876" stroke="white" stroke-width="0.377499"/>
<path opacity="0.6" d="M26.8706 41.2598V34.4648" stroke="white" stroke-width="0.377499"/>
<path d="M26.8705 15.0232C27.3917 15.0232 27.8143 14.6007 27.8143 14.0795C27.8143 13.5583 27.3917 13.1357 26.8705 13.1357C26.3493 13.1357 25.9268 13.5583 25.9268 14.0795C25.9268 14.6007 26.3493 15.0232 26.8705 15.0232Z" fill="white"/>
<path d="M38.5731 21.8182C39.0944 21.8182 39.5169 21.3956 39.5169 20.8744C39.5169 20.3532 39.0944 19.9307 38.5731 19.9307C38.0519 19.9307 37.6294 20.3532 37.6294 20.8744C37.6294 21.3956 38.0519 21.8182 38.5731 21.8182Z" fill="white"/>
<path d="M38.5731 35.407C39.0944 35.407 39.5169 34.9845 39.5169 34.4633C39.5169 33.9421 39.0944 33.5195 38.5731 33.5195C38.0519 33.5195 37.6294 33.9421 37.6294 34.4633C37.6294 34.9845 38.0519 35.407 38.5731 35.407Z" fill="white"/>
<path d="M26.8705 42.2039C27.3917 42.2039 27.8143 41.7814 27.8143 41.2602C27.8143 40.7389 27.3917 40.3164 26.8705 40.3164C26.3493 40.3164 25.9268 40.7389 25.9268 41.2602C25.9268 41.7814 26.3493 42.2039 26.8705 42.2039Z" fill="white"/>
<path d="M15.1674 35.407C15.6886 35.407 16.1111 34.9845 16.1111 34.4633C16.1111 33.9421 15.6886 33.5195 15.1674 33.5195C14.6462 33.5195 14.2236 33.9421 14.2236 34.4633C14.2236 34.9845 14.6462 35.407 15.1674 35.407Z" fill="white"/>
<path d="M15.1674 21.8182C15.6886 21.8182 16.1111 21.3956 16.1111 20.8744C16.1111 20.3532 15.6886 19.9307 15.1674 19.9307C14.6462 19.9307 14.2236 20.3532 14.2236 20.8744C14.2236 21.3956 14.6462 21.8182 15.1674 21.8182Z" fill="white"/>
<path d="M56.0886 38.6699V18.6873H59.7364V38.6699H56.0886ZM66.2622 38.6699V18.6873H69.1053L80.1025 33.4932L78.6273 33.7883V18.6873H82.2751V38.6699H79.4051L68.5689 23.7567L69.91 23.4617V38.6699H66.2622ZM95.9601 38.9918C94.6905 38.9918 93.5103 38.7593 92.4196 38.2944C91.3467 37.8295 90.4168 37.1858 89.6301 36.3632C88.8611 35.5228 88.2979 34.5482 87.9402 33.4396L90.9712 32.1253C91.454 33.2697 92.1513 34.1727 93.0633 34.8343C93.9753 35.4781 95.0035 35.7999 96.1479 35.7999C96.7916 35.7999 97.3459 35.7016 97.8109 35.5049C98.2937 35.2903 98.6602 35.0042 98.9106 34.6466C99.1788 34.2889 99.3129 33.8598 99.3129 33.3591C99.3129 32.769 99.1341 32.2862 98.7765 31.9107C98.4367 31.5173 97.9181 31.2133 97.2208 30.9987L93.3852 29.7649C91.8295 29.2821 90.6582 28.5579 89.8715 27.5923C89.0847 26.6267 88.6913 25.4912 88.6913 24.1859C88.6913 23.0415 88.9684 22.0312 89.5228 21.155C90.095 20.2788 90.8818 19.5993 91.8831 19.1165C92.9024 18.6158 94.0647 18.3655 95.37 18.3655C96.5681 18.3655 97.6678 18.58 98.6692 19.0092C99.6705 19.4205 100.529 20.0016 101.244 20.7526C101.977 21.4858 102.523 22.353 102.88 23.3544L99.8762 24.6955C99.4828 23.6941 98.8927 22.9252 98.1059 22.3888C97.3191 21.8345 96.4072 21.5573 95.37 21.5573C94.7621 21.5573 94.2256 21.6646 93.7607 21.8792C93.2958 22.0759 92.9292 22.362 92.661 22.7375C92.4106 23.0951 92.2855 23.5243 92.2855 24.025C92.2855 24.5793 92.4643 25.071 92.8219 25.5002C93.1795 25.9115 93.7249 26.2333 94.4581 26.4658L98.1327 27.6191C99.7242 28.1377 100.913 28.853 101.7 29.7649C102.505 30.6769 102.907 31.8034 102.907 33.1445C102.907 34.2889 102.612 35.2993 102.022 36.1754C101.432 37.0516 100.618 37.7401 99.5811 38.2408C98.544 38.7414 97.337 38.9918 95.9601 38.9918ZM108.874 38.6699V18.6873H116.331C117.69 18.6873 118.888 18.9377 119.925 19.4383C120.98 19.9211 121.802 20.6364 122.392 21.5841C122.983 22.514 123.278 23.6494 123.278 24.9906C123.278 26.3138 122.974 27.4493 122.366 28.397C121.776 29.3268 120.962 30.0421 119.925 30.5428C118.888 31.0435 117.69 31.2938 116.331 31.2938H112.522V38.6699H108.874ZM112.522 28.0751H116.384C117.046 28.0751 117.618 27.9499 118.101 27.6996C118.584 27.4314 118.959 27.0648 119.227 26.5999C119.496 26.135 119.63 25.5985 119.63 24.9906C119.63 24.3647 119.496 23.8283 119.227 23.3812C118.959 22.9163 118.584 22.5587 118.101 22.3083C117.618 22.0401 117.046 21.906 116.384 21.906H112.522V28.0751ZM128.949 38.6699V18.6873H132.597V38.6699H128.949ZM139.122 38.6699V18.6873H146.552C147.911 18.6873 149.109 18.9377 150.146 19.4383C151.201 19.9211 152.024 20.6364 152.614 21.5841C153.204 22.514 153.499 23.6494 153.499 24.9906C153.499 26.3674 153.168 27.5387 152.507 28.5043C151.863 29.4699 150.987 30.1851 149.878 30.6501L154.465 38.6699H150.334L145.426 29.899L147.786 31.2938H142.77V38.6699H139.122ZM142.77 28.0751H146.606C147.267 28.0751 147.84 27.9499 148.322 27.6996C148.805 27.4314 149.181 27.0648 149.449 26.5999C149.717 26.135 149.851 25.5985 149.851 24.9906C149.851 24.3647 149.717 23.8283 149.449 23.3812C149.181 22.9163 148.805 22.5587 148.322 22.3083C147.84 22.0401 147.267 21.906 146.606 21.906H142.77V28.0751ZM159.538 38.6699V18.6873H172.815V21.906H163.186V27.029H172.278V30.2477H163.186V35.4512H172.815V38.6699H159.538Z" fill="white"/>
</g>
<defs>
<filter id="filter0_d_1221_1444" x="-6.96182e-05" y="0.000139475" width="183.363" height="59.1427" filterUnits="userSpaceOnUse" color-interpolation-filters="sRGB">
<feFlood flood-opacity="0" result="BackgroundImageFix"/>
<feColorMatrix in="SourceAlpha" type="matrix" values="0 0 0 0 0 0 0 0 0 0 0 0 0 0 0 0 0 0 127 0" result="hardAlpha"/>
<feOffset dy="1.90109"/>
<feGaussianBlur stdDeviation="4.75272"/>
<feComposite in2="hardAlpha" operator="out"/>
<feColorMatrix type="matrix" values="0 0 0 0 1 0 0 0 0 1 0 0 0 0 1 0 0 0 0.4 0"/>
<feBlend mode="normal" in2="BackgroundImageFix" result="effect1_dropShadow_1221_1444"/>
<feBlend mode="normal" in="SourceGraphic" in2="effect1_dropShadow_1221_1444" result="shape"/>
</filter>
</defs>
</svg>
