<svg preserveAspectRatio="none" width="100%" height="100%" overflow="visible" style="display: block;" viewBox="0 0 308.733 161.135" fill="none" xmlns="http://www.w3.org/2000/svg">
<g id="Group 46919">
<path id="Vector" opacity="0.65" d="M19.7906 99.8771H3.95812C1.77211 99.8771 0 101.666 0 103.872V157.14C0 159.346 1.77211 161.135 3.95812 161.135H19.7906C21.9766 161.135 23.7487 159.346 23.7487 157.14V103.872C23.7487 101.666 21.9766 99.8771 19.7906 99.8771Z" fill="url(#paint0_linear_1072_1190)"/>
<path id="Vector_2" opacity="0.72" d="M51.4554 77.2384H35.6229C33.4369 77.2384 31.6648 79.0271 31.6648 81.2335V157.14C31.6648 159.347 33.4369 161.135 35.6229 161.135H51.4554C53.6414 161.135 55.4135 159.347 55.4135 157.14V81.2335C55.4135 79.0271 53.6414 77.2384 51.4554 77.2384Z" fill="url(#paint1_linear_1072_1190)"/>
<path id="Vector_3" opacity="0.68" d="M83.1202 89.2236H67.2877C65.1017 89.2236 63.3296 91.0122 63.3296 93.2187V157.14C63.3296 159.346 65.1017 161.135 67.2877 161.135H83.1202C85.3062 161.135 87.0783 159.346 87.0783 157.14V93.2187C87.0783 91.0122 85.3062 89.2236 83.1202 89.2236Z" fill="url(#paint2_linear_1072_1190)"/>
<path id="Vector_4" opacity="0.82" d="M114.785 57.2629H98.9527C96.7667 57.2629 94.9946 59.0516 94.9946 61.258V157.14C94.9946 159.347 96.7667 161.135 98.9527 161.135H114.785C116.971 161.135 118.743 159.347 118.743 157.14V61.258C118.743 59.0516 116.971 57.2629 114.785 57.2629Z" fill="url(#paint3_linear_1072_1190)"/>
<path id="Vector_5" opacity="0.78" d="M146.45 69.2481H130.618C128.432 69.2481 126.659 71.0368 126.659 73.2432V157.14C126.659 159.346 128.432 161.135 130.618 161.135H146.45C148.636 161.135 150.408 159.346 150.408 157.14V73.2432C150.408 71.0368 148.636 69.2481 146.45 69.2481Z" fill="url(#paint4_linear_1072_1190)"/>
<path id="Vector_6" opacity="0.88" d="M178.115 38.6192H162.283C160.097 38.6192 158.324 40.4079 158.324 42.6143V157.14C158.324 159.347 160.097 161.135 162.283 161.135H178.115C180.301 161.135 182.073 159.347 182.073 157.14V42.6143C182.073 40.4079 180.301 38.6192 178.115 38.6192Z" fill="url(#paint5_linear_1072_1190)"/>
<path id="Vector_7" opacity="0.85" d="M209.78 50.6044H193.947C191.761 50.6044 189.989 52.3931 189.989 54.5995V157.14C189.989 159.346 191.761 161.135 193.947 161.135H209.78C211.966 161.135 213.738 159.346 213.738 157.14V54.5995C213.738 52.3931 211.966 50.6044 209.78 50.6044Z" fill="url(#paint6_linear_1072_1190)"/>
<path id="Vector_8" opacity="0.94" d="M241.445 19.9754H225.612C223.426 19.9754 221.654 21.7641 221.654 23.9705V157.14C221.654 159.346 223.426 161.135 225.612 161.135H241.445C243.631 161.135 245.403 159.346 245.403 157.14V23.9705C245.403 21.7641 243.631 19.9754 241.445 19.9754Z" fill="url(#paint7_linear_1072_1190)"/>
<path id="Vector_9" opacity="0.9" d="M273.11 29.2972H257.277C255.091 29.2972 253.319 31.0859 253.319 33.2923V157.14C253.319 159.346 255.091 161.135 257.277 161.135H273.11C275.296 161.135 277.068 159.346 277.068 157.14V33.2923C277.068 31.0859 275.296 29.2972 273.11 29.2972Z" fill="url(#paint8_linear_1072_1190)"/>
<path id="Vector_10" d="M304.775 0H288.942C286.756 0 284.984 1.78866 284.984 3.99509V157.14C284.984 159.346 286.756 161.135 288.942 161.135H304.775C306.961 161.135 308.733 159.346 308.733 157.14V3.99509C308.733 1.78866 306.961 0 304.775 0Z" fill="url(#paint9_linear_1072_1190)"/>
</g>
<defs>
<linearGradient id="paint0_linear_1072_1190" x1="0" y1="99.8771" x2="32.3174" y2="141.64" gradientUnits="userSpaceOnUse">
<stop stop-color="#E74C3C"/>
<stop offset="0.6" stop-color="#C0392B"/>
<stop offset="1" stop-color="#8B0000"/>
</linearGradient>
<linearGradient id="paint1_linear_1072_1190" x1="31.6648" y1="77.2384" x2="77.3115" y2="120.309" gradientUnits="userSpaceOnUse">
<stop stop-color="#E74C3C"/>
<stop offset="0.6" stop-color="#C0392B"/>
<stop offset="1" stop-color="#8B0000"/>
</linearGradient>
<linearGradient id="paint2_linear_1072_1190" x1="63.3296" y1="89.2236" x2="102.341" y2="132.169" gradientUnits="userSpaceOnUse">
<stop stop-color="#E74C3C"/>
<stop offset="0.6" stop-color="#C0392B"/>
<stop offset="1" stop-color="#8B0000"/>
</linearGradient>
<linearGradient id="paint3_linear_1072_1190" x1="94.9946" y1="57.2629" x2="149.578" y2="98.8619" gradientUnits="userSpaceOnUse">
<stop stop-color="#E74C3C"/>
<stop offset="0.6" stop-color="#C0392B"/>
<stop offset="1" stop-color="#8B0000"/>
</linearGradient>
<linearGradient id="paint4_linear_1072_1190" x1="126.659" y1="69.2481" x2="176.187" y2="111.917" gradientUnits="userSpaceOnUse">
<stop stop-color="#E74C3C"/>
<stop offset="0.6" stop-color="#C0392B"/>
<stop offset="1" stop-color="#8B0000"/>
</linearGradient>
<linearGradient id="paint5_linear_1072_1190" x1="158.324" y1="38.6192" x2="219.197" y2="77.9515" gradientUnits="userSpaceOnUse">
<stop stop-color="#E74C3C"/>
<stop offset="0.6" stop-color="#C0392B"/>
<stop offset="1" stop-color="#8B0000"/>
</linearGradient>
<linearGradient id="paint6_linear_1072_1190" x1="189.989" y1="50.6044" x2="247.022" y2="91.4512" gradientUnits="userSpaceOnUse">
<stop stop-color="#E74C3C"/>
<stop offset="0.6" stop-color="#C0392B"/>
<stop offset="1" stop-color="#8B0000"/>
</linearGradient>
<linearGradient id="paint7_linear_1072_1190" x1="221.654" y1="19.9754" x2="287.297" y2="56.7877" gradientUnits="userSpaceOnUse">
<stop stop-color="#E74C3C"/>
<stop offset="0.6" stop-color="#C0392B"/>
<stop offset="1" stop-color="#8B0000"/>
</linearGradient>
<linearGradient id="paint8_linear_1072_1190" x1="253.319" y1="29.2972" x2="316.74" y2="67.3785" gradientUnits="userSpaceOnUse">
<stop stop-color="#E74C3C"/>
<stop offset="0.6" stop-color="#C0392B"/>
<stop offset="1" stop-color="#8B0000"/>
</linearGradient>
<linearGradient id="paint9_linear_1072_1190" x1="284.984" y1="0" x2="354.494" y2="34.1489" gradientUnits="userSpaceOnUse">
<stop stop-color="#E74C3C"/>
<stop offset="0.6" stop-color="#C0392B"/>
<stop offset="1" stop-color="#8B0000"/>
</linearGradient>
</defs>
</svg>
