<svg preserveAspectRatio="none" width="100%" height="100%" overflow="visible" style="display: block;" viewBox="0 0 22.1838 22.1838" fill="none" xmlns="http://www.w3.org/2000/svg">
<g id="mynaui:pin">
<path id="Vector" d="M2.77237 19.4109L7.052 15.1304M7.05662 15.1257L4.48699 12.5561C3.60519 11.6752 4.49254 9.78684 5.69786 9.71105C6.78671 9.64172 9.30735 10.0364 10.1457 9.19804L12.4473 6.89647C13.0176 6.32524 12.6553 5.04782 12.6183 4.34349C12.5647 3.40437 14.0584 2.24434 14.8505 3.03649L19.1459 7.33276C19.9408 8.12583 18.7761 9.61492 17.8398 9.565C17.1355 9.52803 15.8571 9.16569 15.2859 9.736L12.9843 12.0376C12.1469 12.8759 12.5406 15.3956 12.4722 16.4845C12.3964 17.6907 10.508 18.5781 9.62532 17.6954L7.05662 15.1257Z" stroke="var(--stroke-0, white)" stroke-width="1.38649" stroke-linecap="round" stroke-linejoin="round"/>
</g>
</svg>
