<svg preserveAspectRatio="none" width="100%" height="100%" overflow="visible" style="display: block;" viewBox="0 0 22.1838 22.1838" fill="none" xmlns="http://www.w3.org/2000/svg">
<g id="mynaui:pin">
<path id="Vector" d="M2.77281 19.4109L7.05244 15.1303M7.05706 15.1257L4.48743 12.5561C3.60563 11.6752 4.49298 9.78682 5.6983 9.71102C6.78716 9.6417 9.30779 10.0364 10.1462 9.19802L12.4477 6.89645C13.018 6.32522 12.6557 5.0478 12.6187 4.34346C12.5651 3.40435 14.0588 2.24432 14.851 3.03647L19.1463 7.33273C19.9412 8.12581 18.7766 9.61489 17.8402 9.56498C17.1359 9.52801 15.8576 9.16567 15.2863 9.73598L12.9848 12.0376C12.1473 12.8759 12.5411 15.3956 12.4727 16.4845C12.3969 17.6907 10.5085 18.5781 9.62576 17.6953L7.05706 15.1257Z" stroke="var(--stroke-0, white)" stroke-width="1.38649" stroke-linecap="round" stroke-linejoin="round"/>
</g>
</svg>
