<svg preserveAspectRatio="none" width="100%" height="100%" overflow="visible" style="display: block;" viewBox="0 0 22.5708 22.5708" fill="none" xmlns="http://www.w3.org/2000/svg">
<g id="material-symbols:search-rounded">
<path id="Vector" d="M7.92766 14.0427C6.21918 14.0427 4.7734 13.4509 3.59031 12.2672C2.40722 11.0835 1.81537 9.63768 1.81474 7.92982C1.81411 6.22196 2.40597 4.77618 3.59031 3.59247C4.77465 2.40875 6.22043 1.8169 7.92766 1.8169C9.63489 1.8169 11.081 2.40875 12.266 3.59247C13.4509 4.77618 14.0425 6.22196 14.0406 7.92982C14.0406 8.61948 13.9309 9.26996 13.7114 9.88125C13.492 10.4925 13.1942 11.0333 12.818 11.5035L18.0845 16.7701C18.2569 16.9425 18.3431 17.1619 18.3431 17.4284C18.3431 17.6948 18.2569 17.9143 18.0845 18.0867C17.9121 18.2591 17.6927 18.3453 17.4262 18.3453C17.1597 18.3453 16.9403 18.2591 16.7679 18.0867L11.5014 12.8202C11.0311 13.1963 10.4904 13.4941 9.8791 13.7136C9.26781 13.933 8.61733 14.0427 7.92766 14.0427ZM7.92766 12.1618C9.10323 12.1618 10.1026 11.7506 10.9258 10.928C11.749 10.1054 12.1603 9.10601 12.1597 7.92982C12.1591 6.75363 11.7478 5.75456 10.9258 4.93261C10.1039 4.11065 9.10448 3.69905 7.92766 3.6978C6.75085 3.69654 5.75178 4.10815 4.93045 4.93261C4.10912 5.75707 3.69752 6.75614 3.69564 7.92982C3.69376 9.1035 4.10536 10.1029 4.93045 10.928C5.75554 11.7531 6.75461 12.1644 7.92766 12.1618Z" fill="var(--fill-0, white)"/>
</g>
</svg>
