<svg preserveAspectRatio="none" width="100%" height="100%" overflow="visible" style="display: block;" viewBox="0 0 22.1838 22.1838" fill="none" xmlns="http://www.w3.org/2000/svg">
<g id="mynaui:pin">
<path id="Vector" d="M2.77281 19.4109L7.05244 15.1303M7.05706 15.1257L4.48743 12.5561C3.60563 11.6752 4.49298 9.78681 5.6983 9.71101C6.78716 9.64169 9.30779 10.0364 10.1462 9.19801L12.4477 6.89644C13.018 6.32521 12.6557 5.04779 12.6187 4.34346C12.5651 3.40434 14.0588 2.24431 14.851 3.03646L19.1463 7.33272C19.9412 8.1258 18.7766 9.61488 17.8402 9.56497C17.1359 9.528 15.8576 9.16566 15.2863 9.73597L12.9848 12.0375C12.1473 12.8759 12.5411 15.3956 12.4727 16.4845C12.3969 17.6907 10.5085 18.5781 9.62576 17.6953L7.05706 15.1257Z" stroke="var(--stroke-0, white)" stroke-width="1.38649" stroke-linecap="round" stroke-linejoin="round"/>
</g>
</svg>
