<svg preserveAspectRatio="none" width="100%" height="100%" overflow="visible" style="display: block;" viewBox="0 0 25.1302 22.7925" fill="none" xmlns="http://www.w3.org/2000/svg">
<g id="Group">
<path id="Vector" d="M9.05856 11.3963C9.05856 10.8516 9.05856 10.5792 9.14739 10.3642C9.26628 10.0783 9.49369 9.85134 9.77974 9.73298C9.99481 9.64298 10.2671 9.64298 10.8118 9.64298H14.3184C14.863 9.64298 15.1354 9.64298 15.3505 9.73182C15.6363 9.8507 15.8633 10.0781 15.9816 10.3642C16.0716 10.5792 16.0716 10.8516 16.0716 11.3963C16.0716 11.9409 16.0716 12.2133 15.9828 12.4283C15.8639 12.7142 15.6365 12.9412 15.3505 13.0595C15.1354 13.1495 14.863 13.1495 14.3184 13.1495H10.8118C10.2671 13.1495 9.99481 13.1495 9.77974 13.0607C9.49391 12.9418 9.26691 12.7144 9.14856 12.4283C9.05856 12.2133 9.05856 11.9409 9.05856 11.3963Z" stroke="var(--stroke-0, white)" stroke-opacity="0.9" stroke-width="1.75327"/>
<path id="Vector_2" d="M22.5002 5.55202V12.5651C22.5002 16.9728 22.5002 19.1772 21.1304 20.546C19.7605 21.9147 17.5572 21.9159 13.1495 21.9159H11.9806C7.57292 21.9159 5.36848 21.9159 3.99976 20.546C2.63105 19.1761 2.62988 16.9728 2.62988 12.5651V5.55202" stroke="var(--stroke-0, white)" stroke-opacity="0.9" stroke-width="1.75327" stroke-linecap="round"/>
<path id="Vector_3" d="M0.876642 3.21433C0.876642 2.11211 0.876642 1.56158 1.21911 1.21911C1.56158 0.876642 2.11211 0.876642 3.21433 0.876642H21.9159C23.0181 0.876642 23.5686 0.876642 23.9111 1.21911C24.2535 1.56158 24.2535 2.11211 24.2535 3.21433C24.2535 4.31655 24.2535 4.86708 23.9111 5.20955C23.5686 5.55202 23.0181 5.55202 21.9159 5.55202H3.21433C2.11211 5.55202 1.56158 5.55202 1.21911 5.20955C0.876642 4.86708 0.876642 4.31655 0.876642 3.21433Z" stroke="var(--stroke-0, white)" stroke-opacity="0.9" stroke-width="1.75327"/>
</g>
</svg>
