<svg preserveAspectRatio="none" width="100%" height="100%" overflow="visible" style="display: block;" viewBox="0 0 22.1838 22.1838" fill="none" xmlns="http://www.w3.org/2000/svg">
<g id="mynaui:pin">
<path id="Vector" d="M2.77263 19.4109L7.05226 15.1304M7.05688 15.1257L4.48725 12.5561C3.60545 11.6752 4.4928 9.78684 5.69812 9.71105C6.78698 9.64172 9.30761 10.0364 10.146 9.19804L12.4475 6.89647C13.0179 6.32524 12.6555 5.04782 12.6185 4.34349C12.5649 3.40437 14.0586 2.24434 14.8508 3.03649L19.1461 7.33276C19.9411 8.12583 18.7764 9.61492 17.8401 9.565C17.1357 9.52803 15.8574 9.16569 15.2862 9.736L12.9846 12.0376C12.1471 12.8759 12.5409 15.3956 12.4725 16.4845C12.3967 17.6907 10.5083 18.5781 9.62558 17.6954L7.05688 15.1257Z" stroke="var(--stroke-0, white)" stroke-width="1.38649" stroke-linecap="round" stroke-linejoin="round"/>
</g>
</svg>
