<svg preserveAspectRatio="none" width="100%" height="100%" overflow="visible" style="display: block;" viewBox="0 0 53 53" fill="none" xmlns="http://www.w3.org/2000/svg">
<g id="Group 2">
<path id="Vector" d="M26.5 53C41.1355 53 53 41.1355 53 26.5C53 11.8645 41.1355 0 26.5 0C11.8645 0 0 11.8645 0 26.5C0 41.1355 11.8645 53 26.5 53Z" fill="var(--fill-0, #E6383C)"/>
<path id="Vector_2" d="M24.5557 11.5217C33.245 11.5217 41.9344 18.0387 41.9344 26.728C41.9344 37.5897 33.245 41.9344 24.5557 41.9344C18.0387 41.9344 11.5217 37.5897 11.5217 31.0727C11.5217 26.728 15.8664 22.3834 22.3834 24.5557C26.728 26.728 26.728 31.0727 22.3834 31.0727" stroke="var(--stroke-0, white)" stroke-width="4.34466" stroke-linecap="round"/>
</g>
</svg>
