<svg preserveAspectRatio="none" width="100%" height="100%" overflow="visible" style="display: block;" viewBox="0 0 22.1838 22.1838" fill="none" xmlns="http://www.w3.org/2000/svg">
<g id="mynaui:pin">
<path id="Vector" d="M2.77257 19.4109L7.05219 15.1303M7.05682 15.1257L4.48719 12.5561C3.60538 11.6752 4.49274 9.78681 5.69806 9.71101C6.78691 9.64169 9.30755 10.0364 10.1459 9.19801L12.4475 6.89644C13.0178 6.32521 12.6555 5.04779 12.6185 4.34346C12.5649 3.40434 14.0586 2.24431 14.8507 3.03646L19.1461 7.33272C19.941 8.1258 18.7763 9.61488 17.84 9.56497C17.1357 9.528 15.8573 9.16566 15.2861 9.73597L12.9845 12.0375C12.1471 12.8759 12.5408 15.3956 12.4724 16.4845C12.3966 17.6907 10.5082 18.5781 9.62552 17.6953L7.05682 15.1257Z" stroke="var(--stroke-0, white)" stroke-width="1.38649" stroke-linecap="round" stroke-linejoin="round"/>
</g>
</svg>
