<svg preserveAspectRatio="none" width="100%" height="100%" overflow="visible" style="display: block;" viewBox="0 0 22.1838 22.1838" fill="none" xmlns="http://www.w3.org/2000/svg">
<g id="mynaui:pin">
<path id="Vector" d="M2.77269 19.4109L7.05232 15.1303M7.05694 15.1257L4.48731 12.5561C3.60551 11.6752 4.49286 9.78681 5.69818 9.71101C6.78704 9.64169 9.30767 10.0364 10.146 9.19801L12.4476 6.89644C13.0179 6.32521 12.6556 5.04779 12.6186 4.34346C12.565 3.40434 14.0587 2.24431 14.8509 3.03646L19.1462 7.33272C19.9411 8.1258 18.7765 9.61488 17.8401 9.56497C17.1358 9.528 15.8574 9.16566 15.2862 9.73597L12.9846 12.0375C12.1472 12.8759 12.541 15.3956 12.4726 16.4845C12.3968 17.6907 10.5084 18.5781 9.62564 17.6953L7.05694 15.1257Z" stroke="var(--stroke-0, white)" stroke-width="1.38649" stroke-linecap="round" stroke-linejoin="round"/>
</g>
</svg>
