<svg preserveAspectRatio="none" width="100%" height="100%" overflow="visible" style="display: block;" viewBox="0 0 22.1838 22.1838" fill="none" xmlns="http://www.w3.org/2000/svg">
<g id="mynaui:pin">
<path id="Vector" d="M2.77251 19.4109L7.05214 15.1304M7.05676 15.1257L4.48713 12.5561C3.60533 11.6752 4.49268 9.78684 5.698 9.71105C6.78685 9.64172 9.30749 10.0364 10.1459 9.19804L12.4474 6.89647C13.0177 6.32524 12.6554 5.04782 12.6184 4.34349C12.5648 3.40437 14.0585 2.24434 14.8507 3.03649L19.146 7.33276C19.9409 8.12583 18.7763 9.61492 17.8399 9.565C17.1356 9.52803 15.8573 9.16569 15.286 9.736L12.9845 12.0376C12.147 12.8759 12.5408 15.3956 12.4724 16.4845C12.3966 17.6907 10.5082 18.5781 9.62546 17.6954L7.05676 15.1257Z" stroke="var(--stroke-0, white)" stroke-width="1.38649" stroke-linecap="round" stroke-linejoin="round"/>
</g>
</svg>
