<svg preserveAspectRatio="none" width="100%" height="100%" overflow="visible" style="display: block;" viewBox="0 0 421.047 745.769" fill="none" xmlns="http://www.w3.org/2000/svg">
<g id="Group" filter="url(#filter0_f_1072_2189)">
<path id="Vector" d="M92.4396 18.6536C95.3543 18.6536 97.7171 16.2687 97.7171 13.3268C97.7171 10.3849 95.3543 8 92.4396 8C89.525 8 87.1621 10.3849 87.1621 13.3268C87.1621 16.2687 89.525 18.6536 92.4396 18.6536Z" fill="url(#paint0_radial_1072_2189)"/>
<path id="Vector_2" d="M92.4398 177.125C94.6258 177.125 96.3979 175.337 96.3979 173.13C96.3979 170.924 94.6258 169.135 92.4398 169.135C90.2538 169.135 88.4817 170.924 88.4817 173.13C88.4817 175.337 90.2538 177.125 92.4398 177.125Z" fill="url(#paint1_radial_1072_2189)"/>
<path id="Vector_3" d="M250.764 258.359C253.679 258.359 256.042 255.974 256.042 253.032C256.042 250.09 253.679 247.705 250.764 247.705C247.85 247.705 245.487 250.09 245.487 253.032C245.487 255.974 247.85 258.359 250.764 258.359Z" fill="url(#paint2_radial_1072_2189)"/>
<path id="Vector_4" d="M409.089 177.125C411.275 177.125 413.047 175.337 413.047 173.13C413.047 170.924 411.275 169.135 409.089 169.135C406.903 169.135 405.131 170.924 405.131 173.13C405.131 175.337 406.903 177.125 409.089 177.125Z" fill="url(#paint3_radial_1072_2189)"/>
<path id="Vector_5" d="M92.4396 498.064C95.3543 498.064 97.7171 495.679 97.7171 492.737C97.7171 489.795 95.3543 487.41 92.4396 487.41C89.5249 487.41 87.1621 489.795 87.1621 492.737C87.1621 495.679 89.5249 498.064 92.4396 498.064Z" fill="url(#paint4_radial_1072_2189)"/>
<path id="Vector_6" d="M250.764 416.83C252.95 416.83 254.723 415.042 254.723 412.835C254.723 410.629 252.95 408.84 250.764 408.84C248.578 408.84 246.806 410.629 246.806 412.835C246.806 415.042 248.578 416.83 250.764 416.83Z" fill="url(#paint5_radial_1072_2189)"/>
<path id="Vector_7" d="M92.4398 656.536C94.6258 656.536 96.3979 654.747 96.3979 652.541C96.3979 650.334 94.6258 648.545 92.4398 648.545C90.2538 648.545 88.4817 650.334 88.4817 652.541C88.4817 654.747 90.2538 656.536 92.4398 656.536Z" fill="url(#paint6_radial_1072_2189)"/>
<path id="Vector_8" d="M13.2775 737.769C16.1922 737.769 18.555 735.384 18.555 732.442C18.555 729.5 16.1922 727.115 13.2775 727.115C10.3628 727.115 8 729.5 8 732.442C8 735.384 10.3628 737.769 13.2775 737.769Z" fill="url(#paint7_radial_1072_2189)"/>
</g>
<defs>
<filter id="filter0_f_1072_2189" x="0" y="0" width="421.047" height="745.769" filterUnits="userSpaceOnUse" color-interpolation-filters="sRGB">
<feFlood flood-opacity="0" result="BackgroundImageFix"/>
<feBlend mode="normal" in="SourceGraphic" in2="BackgroundImageFix" result="shape"/>
<feGaussianBlur stdDeviation="4" result="effect1_foregroundBlur_1072_2189"/>
</filter>
<radialGradient id="paint0_radial_1072_2189" cx="0" cy="0" r="1" gradientUnits="userSpaceOnUse" gradientTransform="translate(91.3841 11.7287) scale(5.80524 5.85946)">
<stop stop-color="#E74C3C"/>
<stop offset="0.6" stop-color="#C0392B"/>
<stop offset="1" stop-color="#8B0000"/>
</radialGradient>
<radialGradient id="paint1_radial_1072_2189" cx="0" cy="0" r="1" gradientUnits="userSpaceOnUse" gradientTransform="translate(91.6482 171.932) scale(4.35393 4.39459)">
<stop stop-color="#E74C3C"/>
<stop offset="0.6" stop-color="#C0392B"/>
<stop offset="1" stop-color="#8B0000"/>
</radialGradient>
<radialGradient id="paint2_radial_1072_2189" cx="0" cy="0" r="1" gradientUnits="userSpaceOnUse" gradientTransform="translate(249.709 251.434) scale(5.80524 5.85946)">
<stop stop-color="#E74C3C"/>
<stop offset="0.6" stop-color="#C0392B"/>
<stop offset="1" stop-color="#8B0000"/>
</radialGradient>
<radialGradient id="paint3_radial_1072_2189" cx="0" cy="0" r="1" gradientUnits="userSpaceOnUse" gradientTransform="translate(408.297 171.932) scale(4.35393 4.39459)">
<stop stop-color="#E74C3C"/>
<stop offset="0.6" stop-color="#C0392B"/>
<stop offset="1" stop-color="#8B0000"/>
</radialGradient>
<radialGradient id="paint4_radial_1072_2189" cx="0" cy="0" r="1" gradientUnits="userSpaceOnUse" gradientTransform="translate(91.3841 491.139) scale(5.80524 5.85946)">
<stop stop-color="#E74C3C"/>
<stop offset="0.6" stop-color="#C0392B"/>
<stop offset="1" stop-color="#8B0000"/>
</radialGradient>
<radialGradient id="paint5_radial_1072_2189" cx="0" cy="0" r="1" gradientUnits="userSpaceOnUse" gradientTransform="translate(249.973 411.637) scale(4.35393 4.39459)">
<stop stop-color="#E74C3C"/>
<stop offset="0.6" stop-color="#C0392B"/>
<stop offset="1" stop-color="#8B0000"/>
</radialGradient>
<radialGradient id="paint6_radial_1072_2189" cx="0" cy="0" r="1" gradientUnits="userSpaceOnUse" gradientTransform="translate(91.6482 651.342) scale(4.35393 4.39459)">
<stop stop-color="#E74C3C"/>
<stop offset="0.6" stop-color="#C0392B"/>
<stop offset="1" stop-color="#8B0000"/>
</radialGradient>
<radialGradient id="paint7_radial_1072_2189" cx="0" cy="0" r="1" gradientUnits="userSpaceOnUse" gradientTransform="translate(12.222 730.844) scale(5.80524 5.85946)">
<stop stop-color="#E74C3C"/>
<stop offset="0.6" stop-color="#C0392B"/>
<stop offset="1" stop-color="#8B0000"/>
</radialGradient>
</defs>
</svg>
