<svg preserveAspectRatio="none" width="100%" height="100%" overflow="visible" style="display: block;" viewBox="0 0 254.523 190.099" fill="none" xmlns="http://www.w3.org/2000/svg">
<g id="Group">
<path id="Vector" d="M247.325 0.6H7.19693C3.55355 0.6 0.6 3.58107 0.6 7.2584V183.04C0.6 186.718 3.55355 189.699 7.19693 189.699H247.325C250.969 189.699 253.922 186.718 253.922 183.04V7.2584C253.922 3.58107 250.969 0.6 247.325 0.6Z" fill="url(#paint0_linear_1072_2283)" stroke="url(#paint1_linear_1072_2283)" stroke-opacity="0.35" stroke-width="0.8"/>
<path id="Vector_2" d="M249.964 0.6H4.55816C2.37213 0.6 0.6 2.38864 0.6 4.59504V15.2485C0.6 17.4549 2.37213 19.2435 4.55816 19.2435H249.964C252.15 19.2435 253.922 17.4549 253.922 15.2485V4.59504C253.922 2.38864 252.15 0.6 249.964 0.6Z" fill="url(#paint2_linear_1072_2283)"/>
<path id="Vector_3" d="M69.2082 163.065C95.4406 163.065 116.706 141.601 116.706 115.124C116.706 88.6477 95.4406 67.184 69.2082 67.184C42.9758 67.184 21.7103 88.6477 21.7103 115.124C21.7103 141.601 42.9758 163.065 69.2082 163.065Z" stroke="var(--stroke-0, #8B0000)" stroke-opacity="0.2" stroke-width="1.2"/>
<path id="Vector_4" d="M69.2083 149.748C88.1539 149.748 103.512 134.247 103.512 115.125C103.512 96.0024 88.1539 80.5008 69.2083 80.5008C50.2627 80.5008 34.9043 96.0024 34.9043 115.125C34.9043 134.247 50.2627 149.748 69.2083 149.748Z" stroke="var(--stroke-0, #C0392B)" stroke-opacity="0.28" stroke-width="1.2"/>
<path id="Vector_5" d="M69.2081 135.1C80.1383 135.1 88.9989 126.156 88.9989 115.124C88.9989 104.092 80.1383 95.1493 69.2081 95.1493C58.278 95.1493 49.4173 104.092 49.4173 115.124C49.4173 126.156 58.278 135.1 69.2081 135.1Z" stroke="var(--stroke-0, #E74C3C)" stroke-opacity="0.4" stroke-width="1.5"/>
<path id="Vector_6" d="M69.2085 121.783C72.8519 121.783 75.8054 118.802 75.8054 115.125C75.8054 111.447 72.8519 108.466 69.2085 108.466C65.5651 108.466 62.6116 111.447 62.6116 115.125C62.6116 118.802 65.5651 121.783 69.2085 121.783Z" fill="url(#paint3_radial_1072_2283)"/>
<path id="Vector_7" d="M69.2085 67.184C81.8057 67.184 93.887 72.2349 102.795 81.2254C111.702 90.216 116.706 102.41 116.706 115.124" stroke="url(#paint4_linear_1072_2283)" stroke-width="2.2" stroke-linecap="round"/>
<path id="Vector_8" d="M69.2083 80.5008C78.3063 80.5008 87.0316 84.1487 93.4649 90.6419C99.8982 97.1351 103.512 105.942 103.512 115.125" stroke="var(--stroke-0, #C0392B)" stroke-opacity="0.55" stroke-width="1.5" stroke-linecap="round"/>
<path id="Vector_9" opacity="0.45" d="M235.451 37.8871L135.178 37.8871C133.72 37.8871 132.539 39.0795 132.539 40.5504L132.539 45.8772C132.539 47.3481 133.72 48.5405 135.178 48.5405L235.451 48.5405C236.908 48.5405 238.09 47.3481 238.09 45.8772L238.09 40.5504C238.09 39.0795 236.908 37.8871 235.451 37.8871Z" fill="url(#paint5_linear_1072_2283)"/>
<path id="Vector_10" opacity="0.32" d="M203.786 56.5306L135.178 56.5306C133.72 56.5306 132.539 57.723 132.539 59.1939L132.539 64.5207C132.539 65.9916 133.72 67.184 135.178 67.184L203.786 67.184C205.243 67.184 206.425 65.9916 206.425 64.5207L206.425 59.1939C206.425 57.723 205.243 56.5306 203.786 56.5306Z" fill="url(#paint6_linear_1072_2283)"/>
<path id="Vector_11" opacity="0.38" d="M222.257 75.1741L135.178 75.1741C133.72 75.1741 132.539 76.3665 132.539 77.8375L132.539 83.1642C132.539 84.6351 133.72 85.8275 135.178 85.8275L222.257 85.8275C223.714 85.8275 224.896 84.6351 224.896 83.1642L224.896 77.8375C224.896 76.3665 223.714 75.1741 222.257 75.1741Z" fill="url(#paint7_linear_1072_2283)"/>
<path id="Vector_12" opacity="0.28" d="M190.592 93.8176L135.178 93.8176C133.72 93.8176 132.539 95.0101 132.539 96.481L132.539 101.808C132.539 103.279 133.72 104.471 135.178 104.471L190.592 104.471C192.049 104.471 193.231 103.279 193.231 101.808L193.231 96.481C193.231 95.0101 192.049 93.8176 190.592 93.8176Z" fill="url(#paint8_linear_1072_2283)"/>
<path id="Vector_13" opacity="0.35" d="M230.174 112.461L135.178 112.461C133.72 112.461 132.539 113.654 132.539 115.125L132.539 120.451C132.539 121.922 133.72 123.115 135.178 123.115L230.174 123.115C231.631 123.115 232.812 121.922 232.812 120.451L232.812 115.125C232.812 113.654 231.631 112.461 230.174 112.461Z" fill="url(#paint9_linear_1072_2283)"/>
<path id="Vector_14" opacity="0.28" d="M209.063 131.105L135.178 131.105C133.72 131.105 132.539 132.297 132.539 133.768L132.539 139.095C132.539 140.566 133.72 141.758 135.178 141.758L209.063 141.758C210.521 141.758 211.702 140.566 211.702 139.095L211.702 133.768C211.702 132.297 210.521 131.105 209.063 131.105Z" fill="url(#paint10_linear_1072_2283)"/>
<path id="Vector_15" opacity="0.32" d="M219.618 149.748L135.177 149.748C133.72 149.748 132.539 150.941 132.539 152.412L132.539 157.738C132.539 159.209 133.72 160.402 135.177 160.402L219.618 160.402C221.076 160.402 222.257 159.209 222.257 157.738L222.257 152.412C222.257 150.941 221.076 149.748 219.618 149.748Z" fill="url(#paint11_linear_1072_2283)"/>
<path id="Vector_16" d="M0.6 0.6H13.7935" stroke="var(--stroke-0, #E74C3C)" stroke-opacity="0.6" stroke-width="1.2"/>
<path id="Vector_17" d="M0.6 0.6V13.9169" stroke="var(--stroke-0, #E74C3C)" stroke-opacity="0.6" stroke-width="1.2"/>
<path id="Vector_18" d="M240.729 176.382L253.922 176.382" stroke="var(--stroke-0, #C0392B)" stroke-opacity="0.5" stroke-width="1.2"/>
<path id="Vector_19" d="M253.923 176.382L253.923 189.699" stroke="var(--stroke-0, #C0392B)" stroke-opacity="0.5" stroke-width="1.2"/>
</g>
<defs>
<linearGradient id="paint0_linear_1072_2283" x1="0.6" y1="0.6" x2="0.6" y2="189.699" gradientUnits="userSpaceOnUse">
<stop stop-color="#E74C3C" stop-opacity="0.1"/>
<stop offset="0.4" stop-color="#C0392B" stop-opacity="0.06"/>
<stop offset="1" stop-color="#8B0000" stop-opacity="0.03"/>
</linearGradient>
<linearGradient id="paint1_linear_1072_2283" x1="0.6" y1="0.6" x2="253.922" y2="0.6" gradientUnits="userSpaceOnUse">
<stop stop-color="#8B0000"/>
<stop offset="1" stop-color="#E74C3C"/>
</linearGradient>
<linearGradient id="paint2_linear_1072_2283" x1="0.6" y1="0.6" x2="253.922" y2="0.6" gradientUnits="userSpaceOnUse">
<stop stop-color="#C0392B" stop-opacity="0.25"/>
<stop offset="1" stop-color="#B0A09A" stop-opacity="0.08"/>
</linearGradient>
<radialGradient id="paint3_radial_1072_2283" cx="0" cy="0" r="1" gradientUnits="userSpaceOnUse" gradientTransform="translate(67.8891 113.127) scale(7.25663 7.32424)">
<stop stop-color="#E74C3C"/>
<stop offset="0.6" stop-color="#C0392B"/>
<stop offset="1" stop-color="#8B0000"/>
</radialGradient>
<linearGradient id="paint4_linear_1072_2283" x1="69.2085" y1="67.184" x2="116.706" y2="67.184" gradientUnits="userSpaceOnUse">
<stop stop-color="#8B0000"/>
<stop offset="1" stop-color="#E74C3C"/>
</linearGradient>
<linearGradient id="paint5_linear_1072_2283" x1="132.539" y1="37.8871" x2="132.539" y2="48.5405" gradientUnits="userSpaceOnUse">
<stop stop-color="#E74C3C" stop-opacity="0.8"/>
<stop offset="1" stop-color="#8B0000" stop-opacity="0.4"/>
</linearGradient>
<linearGradient id="paint6_linear_1072_2283" x1="132.539" y1="56.5306" x2="132.539" y2="67.184" gradientUnits="userSpaceOnUse">
<stop stop-color="#E74C3C" stop-opacity="0.8"/>
<stop offset="1" stop-color="#8B0000" stop-opacity="0.4"/>
</linearGradient>
<linearGradient id="paint7_linear_1072_2283" x1="132.539" y1="75.1741" x2="132.539" y2="85.8275" gradientUnits="userSpaceOnUse">
<stop stop-color="#E74C3C" stop-opacity="0.8"/>
<stop offset="1" stop-color="#8B0000" stop-opacity="0.4"/>
</linearGradient>
<linearGradient id="paint8_linear_1072_2283" x1="132.539" y1="93.8176" x2="132.539" y2="104.471" gradientUnits="userSpaceOnUse">
<stop stop-color="#E74C3C" stop-opacity="0.8"/>
<stop offset="1" stop-color="#8B0000" stop-opacity="0.4"/>
</linearGradient>
<linearGradient id="paint9_linear_1072_2283" x1="132.539" y1="112.461" x2="132.539" y2="123.115" gradientUnits="userSpaceOnUse">
<stop stop-color="#E74C3C" stop-opacity="0.8"/>
<stop offset="1" stop-color="#8B0000" stop-opacity="0.4"/>
</linearGradient>
<linearGradient id="paint10_linear_1072_2283" x1="132.539" y1="131.105" x2="132.539" y2="141.758" gradientUnits="userSpaceOnUse">
<stop stop-color="#E74C3C" stop-opacity="0.8"/>
<stop offset="1" stop-color="#8B0000" stop-opacity="0.4"/>
</linearGradient>
<linearGradient id="paint11_linear_1072_2283" x1="132.539" y1="149.748" x2="132.539" y2="160.402" gradientUnits="userSpaceOnUse">
<stop stop-color="#E74C3C" stop-opacity="0.8"/>
<stop offset="1" stop-color="#8B0000" stop-opacity="0.4"/>
</linearGradient>
</defs>
</svg>
