<svg preserveAspectRatio="none" width="100%" height="100%" overflow="visible" style="display: block;" viewBox="0 0 22.1838 22.1838" fill="none" xmlns="http://www.w3.org/2000/svg">
<g id="mynaui:pin">
<path id="Vector" d="M2.77257 19.4109L7.05219 15.1303M7.05682 15.1257L4.48719 12.5561C3.60538 11.6752 4.49274 9.78682 5.69806 9.71102C6.78691 9.6417 9.30755 10.0364 10.1459 9.19802L12.4475 6.89645C13.0178 6.32522 12.6555 5.0478 12.6185 4.34346C12.5649 3.40435 14.0586 2.24432 14.8507 3.03647L19.1461 7.33273C19.941 8.12581 18.7763 9.61489 17.84 9.56498C17.1357 9.52801 15.8573 9.16567 15.2861 9.73598L12.9845 12.0376C12.1471 12.8759 12.5408 15.3956 12.4724 16.4845C12.3966 17.6907 10.5082 18.5781 9.62552 17.6953L7.05682 15.1257Z" stroke="var(--stroke-0, white)" stroke-width="1.38649" stroke-linecap="round" stroke-linejoin="round"/>
</g>
</svg>
