<svg preserveAspectRatio="none" width="100%" height="100%" overflow="visible" style="display: block;" viewBox="0 0 22.1838 22.1838" fill="none" xmlns="http://www.w3.org/2000/svg">
<g id="mynaui:pin">
<path id="Vector" d="M2.77243 19.4109L7.05205 15.1303M7.05668 15.1257L4.48705 12.5561C3.60524 11.6752 4.4926 9.78682 5.69792 9.71102C6.78677 9.6417 9.30741 10.0364 10.1458 9.19802L12.4473 6.89645C13.0177 6.32522 12.6553 5.0478 12.6183 4.34346C12.5647 3.40435 14.0584 2.24432 14.8506 3.03647L19.1459 7.33273C19.9409 8.12581 18.7762 9.61489 17.8399 9.56498C17.1355 9.52801 15.8572 9.16567 15.2859 9.73598L12.9844 12.0376C12.1469 12.8759 12.5407 15.3956 12.4723 16.4845C12.3965 17.6907 10.5081 18.5781 9.62538 17.6953L7.05668 15.1257Z" stroke="var(--stroke-0, white)" stroke-width="1.38649" stroke-linecap="round" stroke-linejoin="round"/>
</g>
</svg>
