<svg preserveAspectRatio="none" width="100%" height="100%" overflow="visible" style="display: block;" viewBox="0 0 68.0797 52.7351" fill="none" xmlns="http://www.w3.org/2000/svg">
<g id="Group" opacity="0.3">
<path id="Vector" d="M2.37495 4.79407C3.68655 4.79407 4.74988 3.72089 4.74988 2.39704C4.74988 1.07318 3.68655 0 2.37495 0C1.06334 0 1.25692e-05 1.07318 1.25692e-05 2.39704C1.25692e-05 3.72089 1.06334 4.79407 2.37495 4.79407Z" fill="url(#paint0_radial_1072_1270)"/>
<path id="Vector_2" d="M18.2076 4.79408C19.5192 4.79408 20.5825 3.7209 20.5825 2.39704C20.5825 1.07319 19.5192 8.84785e-06 18.2076 8.84785e-06C16.896 8.84785e-06 15.8326 1.07319 15.8326 2.39704C15.8326 3.7209 16.896 4.79408 18.2076 4.79408Z" fill="url(#paint1_radial_1072_1270)"/>
<path id="Vector_3" d="M34.04 4.79408C35.3516 4.79408 36.4149 3.7209 36.4149 2.39704C36.4149 1.07319 35.3516 8.84785e-06 34.04 8.84785e-06C32.7284 8.84785e-06 31.665 1.07319 31.665 2.39704C31.665 3.7209 32.7284 4.79408 34.04 4.79408Z" fill="url(#paint2_radial_1072_1270)"/>
<path id="Vector_4" d="M49.8724 4.79408C51.184 4.79408 52.2473 3.7209 52.2473 2.39704C52.2473 1.07319 51.184 8.84785e-06 49.8724 8.84785e-06C48.5608 8.84785e-06 47.4975 1.07319 47.4975 2.39704C47.4975 3.7209 48.5608 4.79408 49.8724 4.79408Z" fill="url(#paint3_radial_1072_1270)"/>
<path id="Vector_5" d="M65.7048 4.79408C67.0164 4.79408 68.0797 3.7209 68.0797 2.39704C68.0797 1.07319 67.0164 8.84785e-06 65.7048 8.84785e-06C64.3932 8.84785e-06 63.3299 1.07319 63.3299 2.39704C63.3299 3.7209 64.3932 4.79408 65.7048 4.79408Z" fill="url(#paint4_radial_1072_1270)"/>
<path id="Vector_6" d="M2.37493 20.7744C3.68654 20.7744 4.74987 19.7013 4.74987 18.3774C4.74987 17.0536 3.68654 15.9804 2.37493 15.9804C1.06333 15.9804 0 17.0536 0 18.3774C0 19.7013 1.06333 20.7744 2.37493 20.7744Z" fill="url(#paint5_radial_1072_1270)"/>
<path id="Vector_7" d="M18.2075 20.7744C19.5191 20.7744 20.5824 19.7013 20.5824 18.3774C20.5824 17.0536 19.5191 15.9804 18.2075 15.9804C16.8958 15.9804 15.8325 17.0536 15.8325 18.3774C15.8325 19.7013 16.8958 20.7744 18.2075 20.7744Z" fill="url(#paint6_radial_1072_1270)"/>
<path id="Vector_8" d="M34.04 20.7744C35.3516 20.7744 36.4149 19.7013 36.4149 18.3774C36.4149 17.0536 35.3516 15.9804 34.04 15.9804C32.7284 15.9804 31.665 17.0536 31.665 18.3774C31.665 19.7013 32.7284 20.7744 34.04 20.7744Z" fill="url(#paint7_radial_1072_1270)"/>
<path id="Vector_9" d="M2.37493 36.7548C3.68654 36.7548 4.74987 35.6816 4.74987 34.3578C4.74987 33.0339 3.68654 31.9607 2.37493 31.9607C1.06333 31.9607 0 33.0339 0 34.3578C0 35.6816 1.06333 36.7548 2.37493 36.7548Z" fill="url(#paint8_radial_1072_1270)"/>
<path id="Vector_10" d="M18.2075 36.7548C19.5191 36.7548 20.5824 35.6816 20.5824 34.3578C20.5824 33.0339 19.5191 31.9607 18.2075 31.9607C16.8958 31.9607 15.8325 33.0339 15.8325 34.3578C15.8325 35.6816 16.8958 36.7548 18.2075 36.7548Z" fill="url(#paint9_radial_1072_1270)"/>
<path id="Vector_11" d="M2.37493 52.7351C3.68654 52.7351 4.74987 51.662 4.74987 50.3381C4.74987 49.0142 3.68654 47.9411 2.37493 47.9411C1.06333 47.9411 0 49.0142 0 50.3381C0 51.662 1.06333 52.7351 2.37493 52.7351Z" fill="url(#paint10_radial_1072_1270)"/>
</g>
<defs>
<radialGradient id="paint0_radial_1072_1270" cx="0" cy="0" r="1" gradientUnits="userSpaceOnUse" gradientTransform="translate(1.89996 1.67792) scale(2.61243 2.63674)">
<stop stop-color="#E74C3C"/>
<stop offset="0.6" stop-color="#C0392B"/>
<stop offset="1" stop-color="#8B0000"/>
</radialGradient>
<radialGradient id="paint1_radial_1072_1270" cx="0" cy="0" r="1" gradientUnits="userSpaceOnUse" gradientTransform="translate(17.7326 1.67793) scale(2.61243 2.63674)">
<stop stop-color="#E74C3C"/>
<stop offset="0.6" stop-color="#C0392B"/>
<stop offset="1" stop-color="#8B0000"/>
</radialGradient>
<radialGradient id="paint2_radial_1072_1270" cx="0" cy="0" r="1" gradientUnits="userSpaceOnUse" gradientTransform="translate(33.565 1.67793) scale(2.61243 2.63674)">
<stop stop-color="#E74C3C"/>
<stop offset="0.6" stop-color="#C0392B"/>
<stop offset="1" stop-color="#8B0000"/>
</radialGradient>
<radialGradient id="paint3_radial_1072_1270" cx="0" cy="0" r="1" gradientUnits="userSpaceOnUse" gradientTransform="translate(49.3974 1.67793) scale(2.61243 2.63674)">
<stop stop-color="#E74C3C"/>
<stop offset="0.6" stop-color="#C0392B"/>
<stop offset="1" stop-color="#8B0000"/>
</radialGradient>
<radialGradient id="paint4_radial_1072_1270" cx="0" cy="0" r="1" gradientUnits="userSpaceOnUse" gradientTransform="translate(65.2298 1.67793) scale(2.61243 2.63674)">
<stop stop-color="#E74C3C"/>
<stop offset="0.6" stop-color="#C0392B"/>
<stop offset="1" stop-color="#8B0000"/>
</radialGradient>
<radialGradient id="paint5_radial_1072_1270" cx="0" cy="0" r="1" gradientUnits="userSpaceOnUse" gradientTransform="translate(1.89995 17.6583) scale(2.61243 2.63674)">
<stop stop-color="#E74C3C"/>
<stop offset="0.6" stop-color="#C0392B"/>
<stop offset="1" stop-color="#8B0000"/>
</radialGradient>
<radialGradient id="paint6_radial_1072_1270" cx="0" cy="0" r="1" gradientUnits="userSpaceOnUse" gradientTransform="translate(17.7325 17.6583) scale(2.61243 2.63674)">
<stop stop-color="#E74C3C"/>
<stop offset="0.6" stop-color="#C0392B"/>
<stop offset="1" stop-color="#8B0000"/>
</radialGradient>
<radialGradient id="paint7_radial_1072_1270" cx="0" cy="0" r="1" gradientUnits="userSpaceOnUse" gradientTransform="translate(33.565 17.6583) scale(2.61243 2.63674)">
<stop stop-color="#E74C3C"/>
<stop offset="0.6" stop-color="#C0392B"/>
<stop offset="1" stop-color="#8B0000"/>
</radialGradient>
<radialGradient id="paint8_radial_1072_1270" cx="0" cy="0" r="1" gradientUnits="userSpaceOnUse" gradientTransform="translate(1.89995 33.6387) scale(2.61243 2.63674)">
<stop stop-color="#E74C3C"/>
<stop offset="0.6" stop-color="#C0392B"/>
<stop offset="1" stop-color="#8B0000"/>
</radialGradient>
<radialGradient id="paint9_radial_1072_1270" cx="0" cy="0" r="1" gradientUnits="userSpaceOnUse" gradientTransform="translate(17.7325 33.6387) scale(2.61243 2.63674)">
<stop stop-color="#E74C3C"/>
<stop offset="0.6" stop-color="#C0392B"/>
<stop offset="1" stop-color="#8B0000"/>
</radialGradient>
<radialGradient id="paint10_radial_1072_1270" cx="0" cy="0" r="1" gradientUnits="userSpaceOnUse" gradientTransform="translate(1.89995 49.619) scale(2.61243 2.63674)">
<stop stop-color="#E74C3C"/>
<stop offset="0.6" stop-color="#C0392B"/>
<stop offset="1" stop-color="#8B0000"/>
</radialGradient>
</defs>
</svg>
