<svg preserveAspectRatio="none" width="100%" height="100%" overflow="visible" style="display: block;" viewBox="0 0 68.0795 68.7155" fill="none" xmlns="http://www.w3.org/2000/svg">
<g id="Group" opacity="0.3">
<path id="Vector" d="M2.37487 4.79407C3.68648 4.79407 4.74975 3.72089 4.74975 2.39704C4.74975 1.07318 3.68648 0 2.37487 0C1.06327 0 0 1.07318 0 2.39704C0 3.72089 1.06327 4.79407 2.37487 4.79407Z" fill="url(#paint0_radial_1072_2203)"/>
<path id="Vector_2" d="M18.2072 4.79407C19.5188 4.79407 20.5821 3.72089 20.5821 2.39704C20.5821 1.07318 19.5188 0 18.2072 0C16.8956 0 15.8324 1.07318 15.8324 2.39704C15.8324 3.72089 16.8956 4.79407 18.2072 4.79407Z" fill="url(#paint1_radial_1072_2203)"/>
<path id="Vector_3" d="M34.0398 4.79407C35.3514 4.79407 36.4146 3.72089 36.4146 2.39704C36.4146 1.07318 35.3514 0 34.0398 0C32.7282 0 31.6649 1.07318 31.6649 2.39704C31.6649 3.72089 32.7282 4.79407 34.0398 4.79407Z" fill="url(#paint2_radial_1072_2203)"/>
<path id="Vector_4" d="M49.8722 4.79407C51.1838 4.79407 52.247 3.72089 52.247 2.39704C52.247 1.07318 51.1838 0 49.8722 0C48.5606 0 47.4973 1.07318 47.4973 2.39704C47.4973 3.72089 48.5606 4.79407 49.8722 4.79407Z" fill="url(#paint3_radial_1072_2203)"/>
<path id="Vector_5" d="M65.7046 4.79407C67.0162 4.79407 68.0795 3.72089 68.0795 2.39704C68.0795 1.07318 67.0162 0 65.7046 0C64.393 0 63.3297 1.07318 63.3297 2.39704C63.3297 3.72089 64.393 4.79407 65.7046 4.79407Z" fill="url(#paint4_radial_1072_2203)"/>
<path id="Vector_6" d="M2.37487 20.7745C3.68648 20.7745 4.74975 19.7013 4.74975 18.3774C4.74975 17.0536 3.68648 15.9804 2.37487 15.9804C1.06327 15.9804 0 17.0536 0 18.3774C0 19.7013 1.06327 20.7745 2.37487 20.7745Z" fill="url(#paint5_radial_1072_2203)"/>
<path id="Vector_7" d="M18.2073 20.7745C19.5189 20.7745 20.5821 19.7013 20.5821 18.3774C20.5821 17.0536 19.5189 15.9804 18.2073 15.9804C16.8957 15.9804 15.8324 17.0536 15.8324 18.3774C15.8324 19.7013 16.8957 20.7745 18.2073 20.7745Z" fill="url(#paint6_radial_1072_2203)"/>
<path id="Vector_8" d="M34.0398 20.7745C35.3514 20.7745 36.4147 19.7013 36.4147 18.3774C36.4147 17.0536 35.3514 15.9804 34.0398 15.9804C32.7282 15.9804 31.6649 17.0536 31.6649 18.3774C31.6649 19.7013 32.7282 20.7745 34.0398 20.7745Z" fill="url(#paint7_radial_1072_2203)"/>
<path id="Vector_9" d="M49.8722 20.7745C51.1838 20.7745 52.2471 19.7013 52.2471 18.3774C52.2471 17.0536 51.1838 15.9804 49.8722 15.9804C48.5606 15.9804 47.4973 17.0536 47.4973 18.3774C47.4973 19.7013 48.5606 20.7745 49.8722 20.7745Z" fill="url(#paint8_radial_1072_2203)"/>
<path id="Vector_10" d="M2.37487 36.7547C3.68648 36.7547 4.74975 35.6816 4.74975 34.3577C4.74975 33.0339 3.68648 31.9607 2.37487 31.9607C1.06327 31.9607 0 33.0339 0 34.3577C0 35.6816 1.06327 36.7547 2.37487 36.7547Z" fill="url(#paint9_radial_1072_2203)"/>
<path id="Vector_11" d="M18.2073 36.7547C19.5189 36.7547 20.5821 35.6816 20.5821 34.3577C20.5821 33.0339 19.5189 31.9607 18.2073 31.9607C16.8957 31.9607 15.8324 33.0339 15.8324 34.3577C15.8324 35.6816 16.8957 36.7547 18.2073 36.7547Z" fill="url(#paint10_radial_1072_2203)"/>
<path id="Vector_12" d="M34.0398 36.7547C35.3514 36.7547 36.4147 35.6816 36.4147 34.3577C36.4147 33.0339 35.3514 31.9607 34.0398 31.9607C32.7282 31.9607 31.6649 33.0339 31.6649 34.3577C31.6649 35.6816 32.7282 36.7547 34.0398 36.7547Z" fill="url(#paint11_radial_1072_2203)"/>
<path id="Vector_13" d="M2.37487 52.7351C3.68648 52.7351 4.74975 51.6619 4.74975 50.338C4.74975 49.0142 3.68648 47.941 2.37487 47.941C1.06327 47.941 0 49.0142 0 50.338C0 51.6619 1.06327 52.7351 2.37487 52.7351Z" fill="url(#paint12_radial_1072_2203)"/>
<path id="Vector_14" d="M18.2073 52.7351C19.5189 52.7351 20.5821 51.6619 20.5821 50.338C20.5821 49.0142 19.5189 47.941 18.2073 47.941C16.8957 47.941 15.8324 49.0142 15.8324 50.338C15.8324 51.6619 16.8957 52.7351 18.2073 52.7351Z" fill="url(#paint13_radial_1072_2203)"/>
<path id="Vector_15" d="M2.37487 68.7155C3.68648 68.7155 4.74975 67.6423 4.74975 66.3184C4.74975 64.9946 3.68648 63.9214 2.37487 63.9214C1.06327 63.9214 0 64.9946 0 66.3184C0 67.6423 1.06327 68.7155 2.37487 68.7155Z" fill="url(#paint14_radial_1072_2203)"/>
</g>
<defs>
<radialGradient id="paint0_radial_1072_2203" cx="0" cy="0" r="1" gradientUnits="userSpaceOnUse" gradientTransform="translate(1.8999 1.67792) scale(2.61236 2.63674)">
<stop stop-color="#E74C3C"/>
<stop offset="0.6" stop-color="#C0392B"/>
<stop offset="1" stop-color="#8B0000"/>
</radialGradient>
<radialGradient id="paint1_radial_1072_2203" cx="0" cy="0" r="1" gradientUnits="userSpaceOnUse" gradientTransform="translate(17.7323 1.67792) scale(2.61236 2.63674)">
<stop stop-color="#E74C3C"/>
<stop offset="0.6" stop-color="#C0392B"/>
<stop offset="1" stop-color="#8B0000"/>
</radialGradient>
<radialGradient id="paint2_radial_1072_2203" cx="0" cy="0" r="1" gradientUnits="userSpaceOnUse" gradientTransform="translate(33.5648 1.67792) scale(2.61236 2.63674)">
<stop stop-color="#E74C3C"/>
<stop offset="0.6" stop-color="#C0392B"/>
<stop offset="1" stop-color="#8B0000"/>
</radialGradient>
<radialGradient id="paint3_radial_1072_2203" cx="0" cy="0" r="1" gradientUnits="userSpaceOnUse" gradientTransform="translate(49.3972 1.67792) scale(2.61236 2.63674)">
<stop stop-color="#E74C3C"/>
<stop offset="0.6" stop-color="#C0392B"/>
<stop offset="1" stop-color="#8B0000"/>
</radialGradient>
<radialGradient id="paint4_radial_1072_2203" cx="0" cy="0" r="1" gradientUnits="userSpaceOnUse" gradientTransform="translate(65.2296 1.67792) scale(2.61236 2.63674)">
<stop stop-color="#E74C3C"/>
<stop offset="0.6" stop-color="#C0392B"/>
<stop offset="1" stop-color="#8B0000"/>
</radialGradient>
<radialGradient id="paint5_radial_1072_2203" cx="0" cy="0" r="1" gradientUnits="userSpaceOnUse" gradientTransform="translate(1.8999 17.6583) scale(2.61236 2.63674)">
<stop stop-color="#E74C3C"/>
<stop offset="0.6" stop-color="#C0392B"/>
<stop offset="1" stop-color="#8B0000"/>
</radialGradient>
<radialGradient id="paint6_radial_1072_2203" cx="0" cy="0" r="1" gradientUnits="userSpaceOnUse" gradientTransform="translate(17.7323 17.6583) scale(2.61236 2.63674)">
<stop stop-color="#E74C3C"/>
<stop offset="0.6" stop-color="#C0392B"/>
<stop offset="1" stop-color="#8B0000"/>
</radialGradient>
<radialGradient id="paint7_radial_1072_2203" cx="0" cy="0" r="1" gradientUnits="userSpaceOnUse" gradientTransform="translate(33.5648 17.6583) scale(2.61236 2.63674)">
<stop stop-color="#E74C3C"/>
<stop offset="0.6" stop-color="#C0392B"/>
<stop offset="1" stop-color="#8B0000"/>
</radialGradient>
<radialGradient id="paint8_radial_1072_2203" cx="0" cy="0" r="1" gradientUnits="userSpaceOnUse" gradientTransform="translate(49.3972 17.6583) scale(2.61236 2.63674)">
<stop stop-color="#E74C3C"/>
<stop offset="0.6" stop-color="#C0392B"/>
<stop offset="1" stop-color="#8B0000"/>
</radialGradient>
<radialGradient id="paint9_radial_1072_2203" cx="0" cy="0" r="1" gradientUnits="userSpaceOnUse" gradientTransform="translate(1.8999 33.6386) scale(2.61236 2.63674)">
<stop stop-color="#E74C3C"/>
<stop offset="0.6" stop-color="#C0392B"/>
<stop offset="1" stop-color="#8B0000"/>
</radialGradient>
<radialGradient id="paint10_radial_1072_2203" cx="0" cy="0" r="1" gradientUnits="userSpaceOnUse" gradientTransform="translate(17.7323 33.6386) scale(2.61236 2.63674)">
<stop stop-color="#E74C3C"/>
<stop offset="0.6" stop-color="#C0392B"/>
<stop offset="1" stop-color="#8B0000"/>
</radialGradient>
<radialGradient id="paint11_radial_1072_2203" cx="0" cy="0" r="1" gradientUnits="userSpaceOnUse" gradientTransform="translate(33.5648 33.6386) scale(2.61236 2.63674)">
<stop stop-color="#E74C3C"/>
<stop offset="0.6" stop-color="#C0392B"/>
<stop offset="1" stop-color="#8B0000"/>
</radialGradient>
<radialGradient id="paint12_radial_1072_2203" cx="0" cy="0" r="1" gradientUnits="userSpaceOnUse" gradientTransform="translate(1.8999 49.6189) scale(2.61236 2.63674)">
<stop stop-color="#E74C3C"/>
<stop offset="0.6" stop-color="#C0392B"/>
<stop offset="1" stop-color="#8B0000"/>
</radialGradient>
<radialGradient id="paint13_radial_1072_2203" cx="0" cy="0" r="1" gradientUnits="userSpaceOnUse" gradientTransform="translate(17.7323 49.6189) scale(2.61236 2.63674)">
<stop stop-color="#E74C3C"/>
<stop offset="0.6" stop-color="#C0392B"/>
<stop offset="1" stop-color="#8B0000"/>
</radialGradient>
<radialGradient id="paint14_radial_1072_2203" cx="0" cy="0" r="1" gradientUnits="userSpaceOnUse" gradientTransform="translate(1.8999 65.5993) scale(2.61236 2.63674)">
<stop stop-color="#E74C3C"/>
<stop offset="0.6" stop-color="#C0392B"/>
<stop offset="1" stop-color="#8B0000"/>
</radialGradient>
</defs>
</svg>
