<svg preserveAspectRatio="none" width="100%" height="100%" overflow="visible" style="display: block;" viewBox="0 0 22.1838 22.1838" fill="none" xmlns="http://www.w3.org/2000/svg">
<g id="mynaui:pin">
<path id="Vector" d="M2.77275 19.4109L7.05238 15.1304M7.057 15.1257L4.48738 12.5561C3.60557 11.6752 4.49292 9.78684 5.69824 9.71105C6.7871 9.64172 9.30773 10.0364 10.1461 9.19804L12.4477 6.89647C13.018 6.32524 12.6556 5.04782 12.6187 4.34349C12.5651 3.40437 14.0588 2.24434 14.8509 3.03649L19.1463 7.33276C19.9412 8.12583 18.7765 9.61492 17.8402 9.565C17.1359 9.52803 15.8575 9.16569 15.2863 9.736L12.9847 12.0376C12.1473 12.8759 12.541 15.3956 12.4726 16.4845C12.3968 17.6907 10.5084 18.5781 9.6257 17.6954L7.057 15.1257Z" stroke="var(--stroke-0, white)" stroke-width="1.38649" stroke-linecap="round" stroke-linejoin="round"/>
</g>
</svg>
